<?xml version="1.0" encoding="UTF-8" standalone="no"?>
<svg
   xmlns:dc="http://purl.org/dc/elements/1.1/"
   xmlns:cc="http://creativecommons.org/ns#"
   xmlns:rdf="http://www.w3.org/1999/02/22-rdf-syntax-ns#"
   xmlns:svg="http://www.w3.org/2000/svg"
   xmlns="http://www.w3.org/2000/svg"
   xmlns:sodipodi="http://sodipodi.sourceforge.net/DTD/sodipodi-0.dtd"
   xmlns:inkscape="http://www.inkscape.org/namespaces/inkscape"
   data-name="Layer 1"
   width="711.1879"
   height="669.68268"
   viewBox="0 0 711.1879 669.68268"
   version="1.1"
   id="svg101"
   sodipodi:docname="developer_feeling_proud_dark.svg"
   inkscape:version="0.92.3 (2405546, 2018-03-11)">
  <metadata
     id="metadata107">
    <rdf:RDF>
      <cc:Work
         rdf:about="">
        <dc:format>image/svg+xml</dc:format>
        <dc:type
           rdf:resource="http://purl.org/dc/dcmitype/StillImage" />
        <dc:title>feeling_proud</dc:title>
      </cc:Work>
    </rdf:RDF>
  </metadata>
  <defs
     id="defs105" />
  <sodipodi:namedview
     pagecolor="#ffffff"
     bordercolor="#666666"
     borderopacity="1"
     objecttolerance="10"
     gridtolerance="10"
     guidetolerance="10"
     inkscape:pageopacity="0"
     inkscape:pageshadow="2"
     inkscape:window-width="1366"
     inkscape:window-height="689"
     id="namedview103"
     showgrid="false"
     inkscape:zoom="1.9935077"
     inkscape:cx="134.9128"
     inkscape:cy="465.73838"
     inkscape:window-x="0"
     inkscape:window-y="0"
     inkscape:window-maximized="1"
     inkscape:current-layer="svg101" />
  <title
     id="title2">feeling_proud</title>
  <polygon
     points="516.326 380.018 516.326 565.013 547.27 615.443 549.625 619.279 671.722 619.279 674.189 380.018 516.326 380.018"
     fill="#e6e6e6"
     id="polygon4" />
  <polygon
     points="516.326 380.018 516.326 565.013 547.27 615.443 549.169 380.018 516.326 380.018"
     opacity="0.1"
     id="polygon6" />
  <polygon
     points="221.566 375.084 221.566 560.08 190.622 610.51 188.267 614.345 66.17 614.345 63.703 375.084 221.566 375.084"
     fill="#e6e6e6"
     id="polygon8" />
  <polygon
     points="221.566 375.084 221.566 560.08 190.622 610.51 188.723 375.084 221.566 375.084"
     opacity="0.1"
     id="polygon10" />
  <polygon
     points="711.188 371.385 711.188 382.484 47.67 382.484 47.67 366.451 109.335 334.385 656.923 334.385 711.188 371.385"
     fill="#e6e6e6"
     id="polygon12" />
  <polygon
     points="711.188 371.385 711.188 382.484 47.67 382.484 47.67 366.451 711.188 371.385"
     opacity="0.1"
     id="polygon14" />
  <polygon
     points="142.635 426.883 113.035 426.883 100.702 418.25 156.201 418.25 142.635 426.883"
     fill="#3f3d56"
     id="polygon16" />
  <polygon
     points="142.635 462.649 113.035 462.649 100.702 454.016 156.201 454.016 142.635 462.649"
     fill="#3f3d56"
     id="polygon18" />
  <polygon
     points="142.635 513.215 113.035 513.215 100.702 504.581 156.201 504.581 142.635 513.215"
     fill="#3f3d56"
     id="polygon20" />
  <polygon
     points="142.635 563.78 113.035 563.78 100.702 555.147 156.201 555.147 142.635 563.78"
     fill="#3f3d56"
     id="polygon22" />
  <polygon
     points="595.257 431.816 624.857 431.816 637.19 423.183 581.691 423.183 595.257 431.816"
     fill="#3f3d56"
     id="polygon24" />
  <polygon
     points="595.257 467.582 624.857 467.582 637.19 458.949 581.691 458.949 595.257 467.582"
     fill="#3f3d56"
     id="polygon26" />
  <polygon
     points="595.257 518.148 624.857 518.148 637.19 509.515 581.691 509.515 595.257 518.148"
     fill="#3f3d56"
     id="polygon28" />
  <polygon
     points="595.257 568.713 624.857 568.713 637.19 560.08 581.691 560.08 595.257 568.713"
     fill="#3f3d56"
     id="polygon30" />
  <path
     d="M859.81989,235.61493H610.63446a9.4227,9.4227,0,0,0-9.42389,9.42389V412.89655a9.4227,9.4227,0,0,0,9.42389,9.42388h94.5929l-3.54389,22.62623s-20.25281,10.75927-6.01251,11.07574,81.32764,0,81.32764,0,12.97448,0-7.59479-11.39221l-3.33362-22.30976h93.7497a9.42266,9.42266,0,0,0,9.42388-9.42388V245.03882A9.42266,9.42266,0,0,0,859.81989,235.61493Z"
     transform="translate(-244.40605 -115.15866)"
     fill="#3f3d56"
     id="path32" />
  <rect
     x="365.82336"
     y="130.42445"
     width="249.99557"
     height="139.87094"
     fill="#f2f2f2"
     id="rect34" />
  <circle
     cx="490.82114"
     cy="125.99415"
     r="1.58225"
     fill="#f2f2f2"
     id="circle36" />
  <circle
     cx="490.82114"
     cy="294.34559"
     r="6.01255"
     fill="#f2f2f2"
     id="circle38" />
  <polygon
     points="481.452 357.952 481.452 361.117 311.202 361.117 311.202 358.585 311.436 357.952 315.632 346.56 477.971 346.56 481.452 357.952"
     fill="#3f3d56"
     id="polygon40" />
  <path
     d="M791.37558,470.01266c-.31011,1.3259-1.481,2.72467-4.1265,4.04741-9.4935,4.74675-28.797-1.2658-28.797-1.2658s-14.87315-2.53161-14.87315-9.17706a11.86592,11.86592,0,0,1,1.30377-.77528c3.99133-2.11163,17.2253-7.32222,40.69051.22062a9.78618,9.78618,0,0,1,4.46035,2.923A4.667,4.667,0,0,1,791.37558,470.01266Z"
     transform="translate(-244.40605 -115.15866)"
     fill="#3f3d56"
     id="path42" />
  <path
     d="M791.37558,470.01266c-11.62,4.45247-21.97744,4.78472-32.607-2.59805a23.34328,23.34328,0,0,0-13.88583-4.57268c3.99133-2.11163,17.2253-7.32222,40.69051.22062a9.78618,9.78618,0,0,1,4.46035,2.923A4.667,4.667,0,0,1,791.37558,470.01266Z"
     transform="translate(-244.40605 -115.15866)"
     opacity="0.1"
     id="path44" />
  <ellipse
     cx="532.40017"
     cy="350.99016"
     rx="4.11385"
     ry="1.2658"
     fill="#f2f2f2"
     id="ellipse46" />
  <polygon
     points="481.452 357.952 481.452 361.117 311.202 361.117 311.202 358.585 311.436 357.952 481.452 357.952"
     opacity="0.1"
     id="polygon48" />
  <path
     d="M339.06751,115.15881a8.55394,8.55394,0,0,0-4.96126,1.1083c-1.476,1.0108-2.40629,2.78162-3.35588,4.42947a52.98576,52.98576,0,0,1-14.43428,16.30464c-4.28894,3.142-9.74169,7.05966-9.00789,12.85269a17.37163,17.37163,0,0,0,2.09058,5.4255c3.9566,7.987,14.75357,14.15926,13.69156,23.27309,3.931-6.58092-1.327-9.835,2.604-16.41586,1.87205-3.134,5.12412-6.67168,7.95054-4.70353.94637.659,1.56777,1.84095,2.55314,2.41917,2.35122,1.37972,4.85259-1.258,6.93387-3.12633,7.17685-6.44263,17.383-4.7548,26.31387-2.74743,4.21624.94767,8.8473,2.191,11.33971,6.2207,3.277,5.29821-3.11344,11.02034-4.72807,17.01049a3.264,3.264,0,0,0,3.50293,4.06214c2.67975-.26434,5.8542-.481,6.01278-1.65694,3.37154.12,7.50269-.26181,8.94728-3.7725a14.76216,14.76216,0,0,0,.69252-4.29319c.5302-5.89718,3.0331-11.27719,4.69119-16.88993s2.37906-12.1905-.41909-17.1668a19.86362,19.86362,0,0,0-3.666-4.45557C379.94,117.67017,359.06259,115.136,339.06751,115.15881Z"
     transform="translate(-244.40605 -115.15866)"
     fill="#2f2e41"
     id="path50" />
  <path
     d="M326.54375,190.06386s3.4534,28.7784-9.20909,31.08068,11.51136,41.4409,11.51136,41.4409l57.55681,6.90682-13.81364-46.04545s-9.20909-3.45341-3.4534-26.47613S326.54375,190.06386,326.54375,190.06386Z"
     transform="translate(-244.40605 -115.15866)"
     fill="#ffb8b8"
     id="path52" />
  <polygon
     points="47.028 569.318 51.633 632.631 75.806 632.631 68.9 569.318 47.028 569.318"
     fill="#ffb8b8"
     id="polygon54" />
  <polygon
     points="224.303 449.6 227.756 502.552 254.233 491.041 243.872 447.298 224.303 449.6"
     fill="#ffb8b8"
     id="polygon56" />
  <path
     d="M274.16705,442.73826s1.15113,66.7659,8.058,88.63749,5.75568,23.02272,4.60455,26.47613-2.30228,1.15114-2.30228,6.90682-2.30227,96.69544,0,104.7534-6.90681,21.87159,0,23.02272,39.13863,0,40.28977-6.90682-9.20909-9.20909-4.60454-13.81363,11.51136-98.99772,11.51136-98.99772l16.11591-65.61476,29.92954-34.53409H441.0818l19.56932,75.975s-8.058,21.87159-2.30228,21.87159,40.28977,6.90682,40.28977-18.41818S487.12725,451.94735,484.825,449.64508s1.15113-10.36023-2.30228-13.81364-43.74317-27.62727-58.70794-32.23181S387.857,393.51476,387.857,393.51476Z"
     transform="translate(-244.40605 -115.15866)"
     fill="#2f2e41"
     id="path58" />
  <path
     d="M498.63861,596.99051s-17.267-5.75568-25.325,11.51137-4.60454,21.87159-4.60454,21.87159,26.47613,9.20909,31.08068,4.60454c2.00333-2.00334,8.36471-2.69926,14.91273-2.84621,9.97289-.22381,12.62625-14.33323,3.20748-17.61885q-.42145-.147-.85317-.25539C507.8477,611.95529,498.63861,596.99051,498.63861,596.99051Z"
     transform="translate(-244.40605 -115.15866)"
     fill="#2f2e41"
     id="path60" />
  <circle
     cx="108.03826"
     cy="59.36486"
     r="34.53409"
     fill="#ffb8b8"
     id="circle62" />
  <path
     d="m 61.418164,120.37508 c 0,0 53.023126,11.51136 66.008396,-6.90682 12.98526,-18.41818 18.39577,51.80113 18.39577,51.80113 l 6.49263,73.67272 -9.73894,40.28977 c 0,0 -50.858925,43.74318 -67.090494,47.19658 -16.231569,3.4534 -41.119986,5.75569 -41.119986,5.75569 0,0 7.574777,-127.77613 7.574777,-130.0784 0,-2.30227 19.477847,-81.73067 19.477847,-81.73067 z"
     id="path64"
     inkscape:connector-curvature="0"
     style="fill:#6c63ff;stroke-width:0.96955246" />
  <path
     d="M324.70433,213.94456s-12.54979-7.18923-16.0032-.28241S273.01591,237.836,269.5625,237.836s6.90682,95.54431,2.30227,107.05567S245.38864,440.436,258.05114,447.34281s3.45341-6.90682,16.11591,10.36022,74.82385,17.267,78.27726,10.36023-27.62727-58.708-21.87159-107.05567,14.96477-115.11362,6.90682-124.32271S324.70433,213.94456,324.70433,213.94456Z"
     transform="translate(-244.40605 -115.15866)"
     fill="#2f2e41"
     id="path66" />
  <path
     d="M366.258,221.7201l1.60341-5.518s47.89544,15.87824,50.19772,26.23847,1.15113,82.88181-6.90682,88.63749-19.56932,14.96477-11.51136,28.7784,17.267,28.77841,24.17386,29.92954,19.56931,9.20909,16.1159,17.267-44.89431-6.90682-44.89431-6.90682-27.62727-20.72045-26.47613-52.95227S366.258,221.7201,366.258,221.7201Z"
     id="path68"
     transform="translate(-244.40605 -115.15866)"
     fill="#2f2e41" />
  <path
     d="M406.54771,357.55418l-27.62727,51.80113s-40.28976,41.4409-17.267,46.04545,35.68522-37.9875,35.68522-37.9875l29.92955-42.592Z"
     transform="translate(-244.40605 -115.15866)"
     fill="#ffb8b8"
     id="path70" />
  <path
     d="M340.74981,124.19457a7.83806,7.83806,0,0,0-4.03868.78334,9.41322,9.41322,0,0,0-2.73182,3.13072,39.77267,39.77267,0,0,1-11.7501,11.524c-3.49138,2.22077-7.93014,4.98972-7.3328,9.0842a11.35949,11.35949,0,0,0,1.70182,3.8347,30.16344,30.16344,0,0,1,3.66519,18.80068l9.60011-13.954c1.52393-2.21507,4.17125-4.7155,6.47207-3.32442.77039.46577,1.27623,1.30117,2.07836,1.70985,1.914.97518,3.95021-.88912,5.64447-2.20967,5.84225-4.55361,14.15049-3.36066,21.42059-1.94187,3.43219.66981,7.20207,1.54859,9.231,4.39676,3.37169,4.73311-.149,11.5721,1.81882,17.04a5.02339,5.02339,0,0,0,2.07852-3.31717c2.74457.08484,6.1075-.185,7.28345-2.66638a9.18757,9.18757,0,0,0,.56374-3.03439c.43161-4.16809,2.46907-7.97065,3.81883-11.93769s1.93666-8.61616-.34116-12.13338a14.68107,14.68107,0,0,0-2.98426-3.14917C374.02174,125.96958,357.02664,124.17845,340.74981,124.19457Z"
     transform="translate(-244.40605 -115.15866)"
     fill="#2f2e41"
     id="path72" />
  <path
     d="m 163.64654,120.67083 10.72528,2.84686 c 0,0 24.95995,63.919 19.20427,107.66222 -5.75568,43.74322 -9.20909,34.53409 -9.20909,34.53409 0,0 -9.20909,-20.72046 -29.92955,-16.11591 z"
     id="path74"
     inkscape:connector-curvature="0"
     style="fill:#2f2e41" />
  <path
     d="M293.02894,739.422c-2.77592,3.77228-2.21935,9.16459-4.67828,13.15075-2.13144,3.45526-6.14837,5.26695-8.81439,8.32869a22.32616,22.32616,0,0,0-2.26617,3.25987c-2.47311,4.14255-4.4833,9.45174-2.04761,13.61641,1.95936,3.35022,6.07786,4.65961,9.855,5.552,4.77407,1.128,9.73436,2.03071,14.56354,1.16876s9.54882-3.819,11.27067-8.41239a32.50011,32.50011,0,0,1,1.2051-3.4007c2.61747-5.15294,10.82749-5.20864,13.50628-10.33,1.87466-3.584.15138-7.91623-1.57118-11.57578l-5.26109-11.1771c-1.74592-3.70919-8.82362-1.57608-12.51339-2.46492C301.46518,735.97844,296.49084,734.70126,293.02894,739.422Z"
     transform="translate(-244.40605 -115.15866)"
     fill="#2f2e41"
     id="path76" />
  <path
     d="M254.59773,380.5769l48.34772,74.82386s29.92954,37.98749,39.13863,20.72045-32.23181-46.04545-32.23181-46.04545L278.77159,372.519Z"
     transform="translate(-244.40605 -115.15866)"
     fill="#ffb8b8"
     id="path78" />
  <path
     d="M278.77159,240.13828,269.5625,237.836s-18.41818,5.75568-23.02272,29.92954-1.15114,120.86931,4.60454,122.02044,28.42725-16.83663,32.05624-13.02286-7.88238-15.75554-4.429-26.11577S278.77159,240.13828,278.77159,240.13828Z"
     transform="translate(-244.40605 -115.15866)"
     fill="#2f2e41"
     id="path80" />
  <g
     id="f3c2397c-d780-4cc6-97d8-1503d8277a2c"
     data-name="Group 13">
    <rect
       id="ad41612f-86f7-46b2-a964-3a5da7bcf3cf"
       data-name="Rectangle 55"
       x="437.40692"
       y="176.36275"
       width="29.75235"
       height="7.1626"
       fill="#6c63ff" />
    <rect
       id="b9a0b375-cc2a-4c59-8850-661af54e4f62"
       data-name="Rectangle 56"
       x="559.72215"
       y="176.36275"
       width="10.46842"
       height="7.1626"
       fill="#6c63ff" />
    <rect
       id="e174c2ab-9bc5-41ec-b37c-b06fbf8a9878"
       data-name="Rectangle 57"
       x="580.65899"
       y="176.36275"
       width="10.46842"
       height="7.1626"
       fill="#6c63ff" />
    <rect
       id="ba2479ac-4c7d-43b4-a028-73b1e20e4002"
       data-name="Rectangle 58"
       x="477.62768"
       y="176.36275"
       width="71.07506"
       height="7.1626"
       fill="#6c63ff" />
    <rect
       id="ac60ef86-00f2-480b-8171-28b6fdfc1958"
       data-name="Rectangle 59"
       x="399.94099"
       y="222.6442"
       width="29.75235"
       height="7.1626"
       fill="#6c63ff" />
    <rect
       id="b3d8298d-cd65-487a-8b19-4cee946356e7"
       data-name="Rectangle 60"
       x="522.25621"
       y="222.6442"
       width="10.46842"
       height="7.1626"
       fill="#6c63ff" />
    <rect
       id="ed27f15f-f0c4-4569-8330-a6688f8e356c"
       data-name="Rectangle 61"
       x="543.19305"
       y="222.6442"
       width="10.46842"
       height="7.1626"
       fill="#6c63ff" />
    <rect
       id="f685c005-adaf-4d60-acda-005b037d82a6"
       data-name="Rectangle 62"
       x="440.16176"
       y="222.6442"
       width="71.07506"
       height="7.1626"
       fill="#6c63ff" />
    <rect
       id="eca7c7fc-83f8-48ca-a588-6606db47af3f"
       data-name="Rectangle 63"
       x="522.80718"
       y="192.34088"
       width="29.75235"
       height="7.1626"
       fill="#6c63ff" />
    <rect
       id="a71b5b2f-f8b9-481d-a301-5e3357e5fe42"
       data-name="Rectangle 64"
       x="563.02795"
       y="192.34088"
       width="29.75235"
       height="7.1626"
       fill="#6c63ff" />
    <rect
       id="abb3a25a-f854-41fc-8391-e6ad9fbe2417"
       data-name="Rectangle 66"
       x="399.94099"
       y="192.34088"
       width="10.46842"
       height="7.1626"
       fill="#6c63ff" />
    <rect
       id="add2b425-b775-4eb5-9c25-8c4c14f957c9"
       data-name="Rectangle 67"
       x="420.87784"
       y="192.34088"
       width="10.46842"
       height="7.1626"
       fill="#6c63ff" />
    <rect
       id="b7159612-3b84-4b0b-a885-612eaab04c06"
       data-name="Rectangle 68"
       x="441.81466"
       y="192.34088"
       width="71.07506"
       height="7.1626"
       fill="#6c63ff" />
    <rect
       id="edfc7301-4de5-47dc-80e2-1ae2da982d6d"
       data-name="Rectangle 69"
       x="461.09859"
       y="207.76802"
       width="29.75235"
       height="7.1626"
       fill="#6c63ff" />
    <rect
       id="e1009f91-6275-4375-80fa-0d778e331fdc"
       data-name="Rectangle 70"
       x="420.87783"
       y="207.76802"
       width="29.75235"
       height="7.1626"
       fill="#6c63ff" />
    <rect
       id="a060fb9f-1f1a-4862-9a69-16dd49199e18"
       data-name="Rectangle 71"
       x="399.941"
       y="207.76802"
       width="10.46842"
       height="7.1626"
       fill="#6c63ff" />
    <rect
       id="b6754d5f-104f-449c-b9a9-cf9ac82bf5fe"
       data-name="Rectangle 73"
       x="582.31189"
       y="207.76802"
       width="10.46842"
       height="7.1626"
       fill="#6c63ff" />
    <rect
       id="e6ed1ccd-2cfd-450f-a339-07df3a1ee6bb"
       data-name="Rectangle 74"
       x="500.76841"
       y="207.76802"
       width="71.07506"
       height="7.1626"
       fill="#6c63ff" />
  </g>
  <path
     style="opacity:0.5699999;fill:#004455;fill-opacity:0.70980392;fill-rule:nonzero;stroke:none;stroke-width:1.00325668;stroke-opacity:1"
     d="M 366.32905,200.38641 V 131.1617 h 124.40383 124.40383 v 69.22471 69.22471 H 490.73288 366.32905 Z m 64.01817,25.83386 0.31138,-3.76221 h -15.61104 -15.61104 v 4.03916 4.03915 l 15.29966,-0.27694 15.29967,-0.27695 z m 81.45405,0.25082 v -4.01303 h -36.11724 -36.11725 v 4.01303 4.01302 h 36.11725 36.11724 z m 21.06839,0 v -4.01303 h -5.51791 -5.51792 v 4.01303 4.01302 h 5.51792 5.51791 z m 21.06839,0 v -4.01303 h -5.51791 -5.51791 v 4.01303 4.01302 h 5.51791 5.51791 z M 410.47234,211.42224 v -4.01303 h -5.51791 -5.51791 v 4.01303 4.01302 h 5.51791 5.51791 z m 40.13027,0 v -4.01303 h -15.04885 -15.04885 v 4.01303 4.01302 h 15.04885 15.04885 z m 40.63189,0 v -3.5114 l -15.29966,-0.27695 -15.29966,-0.27694 v 4.06529 4.06528 l 15.29966,-0.27694 15.29966,-0.27695 z m 80.76217,0 v -4.01303 h -35.61561 -35.61562 v 4.01303 4.01302 h 35.61562 35.61561 z m 21.06839,0 v -4.01303 h -5.51791 -5.51791 v 4.01303 4.01302 h 5.51791 5.51791 z M 410.47234,196.37338 v -4.01302 h -5.51791 -5.51791 v 3.34419 c 0,4.35559 0.43114,4.68186 6.18675,4.68186 h 4.84907 z m 20.87814,-0.25081 0.31138,-3.76221 h -5.57848 -5.57847 v 3.34419 c 0,4.39205 0.58455,4.82955 5.98218,4.4773 4.47448,-0.29201 4.55732,-0.36114 4.86339,-4.05928 z m 81.45404,0.25081 v -4.01302 H 477.18891 441.5733 v 3.34419 c 0,1.8393 0.30098,3.64516 0.66884,4.01302 0.36786,0.36786 16.39488,0.66884 35.61561,0.66884 h 34.94677 z m 39.94002,-0.25081 0.31138,-3.76221 h -15.10941 -15.10942 v 4.03984 4.03985 l 14.79804,-0.27763 14.79803,-0.27764 z m 40.13027,0 0.31137,-3.76221 h -15.1094 -15.10942 v 4.03984 4.03985 l 14.79804,-0.27763 14.79803,-0.27764 z m -125.40709,-16.05211 0.31138,-3.76221 h -15.61104 -15.61105 v 3.34419 c 0,1.8393 0.31255,3.65674 0.69456,4.03874 0.382,0.38201 7.26685,0.57012 15.29966,0.41803 l 14.60511,-0.27653 z m 81.45405,0.25082 v -4.01303 h -35.61562 -35.61561 v 4.01303 4.01302 h 35.61561 35.61562 z m 21.8814,-0.25082 0.31137,-3.76221 h -6.0801 -6.08011 v 3.34419 c 0,1.8393 0.32126,3.66545 0.71391,4.05809 0.39264,0.39265 2.98857,0.58076 5.76873,0.41803 l 5.05481,-0.29588 z m 20.25538,0.25082 v -4.01303 h -5.51792 -5.51791 v 3.34419 c 0,4.3556 0.43114,4.68186 6.18676,4.68186 h 4.84907 z"
     id="path914"
     inkscape:connector-curvature="0" />
  <path
     style="opacity:0.5699999;fill:#00ccff;fill-opacity:0.70980392;fill-rule:nonzero;stroke:none;stroke-width:1.00325668;stroke-opacity:1"
     d="m 437.56027,179.81965 v -3.5114 h 14.54722 14.54723 v 3.5114 3.5114 h -14.54723 -14.54722 z"
     id="path916"
     inkscape:connector-curvature="0" />
  <path
     style="opacity:0.5699999;fill:#00ccff;fill-opacity:0.70980392;fill-rule:nonzero;stroke:none;stroke-width:0.25081417;stroke-opacity:1"
     d="m 437.63204,179.8776 v -3.51343 h 14.5543 14.5543 l -0.0698,3.44869 -0.0698,3.4487 -14.48452,0.0647 -14.48452,0.0647 z"
     id="path918"
     inkscape:connector-curvature="0" />
  <path
     style="opacity:0.5699999;fill:#00ccff;fill-opacity:0.70980392;fill-rule:nonzero;stroke:none;stroke-width:0.25081417;stroke-opacity:1"
     d="m 477.76231,179.87557 v -3.5114 h 35.3648 35.3648 v 3.5114 3.5114 h -35.3648 -35.3648 z"
     id="path920"
     inkscape:connector-curvature="0" />
  <path
     style="opacity:0.5699999;fill:#00ccff;fill-opacity:0.70980392;fill-rule:nonzero;stroke:none;stroke-width:0.25081417;stroke-opacity:1"
     d="m 442.06309,199.27186 c -0.092,-0.092 -0.16721,-1.67209 -0.16721,-3.5114 v -3.34418 h 35.3648 35.3648 v 3.51139 3.5114 h -35.19759 c -19.35867,0 -35.27283,-0.0752 -35.3648,-0.16721 z"
     id="path922"
     inkscape:connector-curvature="0" />
  <path
     style="opacity:0.5699999;fill:#00ccff;fill-opacity:0.70980392;fill-rule:nonzero;stroke:none;stroke-width:0.25081417;stroke-opacity:1"
     d="m 522.90886,195.92767 v -3.51139 h 14.79804 14.79804 v 3.51139 3.5114 H 537.7069 522.90886 Z"
     id="path924"
     inkscape:connector-curvature="0" />
  <path
     style="opacity:0.5699999;fill:#00ccff;fill-opacity:0.70980392;fill-rule:nonzero;stroke:none;stroke-width:0.25081417;stroke-opacity:1"
     d="m 500.83722,211.35275 v -3.386 h 35.4902 35.49021 v 3.386 3.38599 h -35.49021 -35.4902 z"
     id="path926"
     inkscape:connector-curvature="0" />
  <path
     style="opacity:0.5699999;fill:#00ccff;fill-opacity:0.70980392;fill-rule:nonzero;stroke:none;stroke-width:0.25081417;stroke-opacity:1"
     d="m 461.20858,211.35275 v -3.386 h 14.79803 14.79804 v 3.386 3.38599 h -14.79804 -14.79803 z"
     id="path928"
     inkscape:connector-curvature="0" />
  <path
     style="opacity:0.5699999;fill:#00ccff;fill-opacity:0.70980392;fill-rule:nonzero;stroke:none;stroke-width:0.25081417;stroke-opacity:1"
     d="m 421.07831,211.35275 v -3.386 h 14.67263 14.67263 v 3.386 3.38599 h -14.67263 -14.67263 z"
     id="path930"
     inkscape:connector-curvature="0" />
  <path
     style="opacity:0.5699999;fill:#00ccff;fill-opacity:0.70980392;fill-rule:nonzero;stroke:none;stroke-width:0.25081417;stroke-opacity:1"
     d="m 421.07831,195.92767 v -3.51139 h 5.17896 5.17896 l -0.1392,2.82165 c -0.0766,1.55192 -0.28075,3.13205 -0.45375,3.5114 l -0.31455,0.68974 h -4.72521 -4.72521 z"
     id="path932"
     inkscape:connector-curvature="0" />
  <path
     style="opacity:0.5699999;fill:#00ccff;fill-opacity:0.70980392;fill-rule:nonzero;stroke:none;stroke-width:0.25081417;stroke-opacity:1"
     d="m 400.00992,195.92767 v -3.51139 h 5.14169 5.14169 v 3.51139 3.5114 h -5.14169 -5.14169 z"
     id="path934"
     inkscape:connector-curvature="0" />
  <path
     style="opacity:0.5699999;fill:#00ccff;fill-opacity:0.70980392;fill-rule:nonzero;stroke:none;stroke-width:0.25081417;stroke-opacity:1"
     d="m 400.00992,211.35275 v -3.386 h 5.14169 5.14169 v 3.386 3.38599 h -5.14169 -5.14169 z"
     id="path936"
     inkscape:connector-curvature="0" />
  <path
     style="opacity:0.5699999;fill:#00ccff;fill-opacity:0.70980392;fill-rule:nonzero;stroke:none;stroke-width:0.25081417;stroke-opacity:1"
     d="m 400.00992,226.27619 v -3.5114 h 14.79803 14.79804 v 3.5114 3.5114 h -14.79804 -14.79803 z"
     id="path938"
     inkscape:connector-curvature="0" />
  <path
     style="opacity:0.5699999;fill:#00ccff;fill-opacity:0.70980392;fill-rule:nonzero;stroke:none;stroke-width:0.25081417;stroke-opacity:1"
     d="m 440.14019,226.27619 v -3.5114 h 35.4902 35.49021 v 3.5114 3.5114 h -35.49021 -35.4902 z"
     id="path940"
     inkscape:connector-curvature="0" />
  <path
     style="opacity:0.5699999;fill:#00ccff;fill-opacity:0.70980392;fill-rule:nonzero;stroke:none;stroke-width:0.25081417;stroke-opacity:1"
     d="m 522.40724,226.27619 v -3.5114 h 5.14169 5.14169 v 3.5114 3.5114 h -5.14169 -5.14169 z"
     id="path942"
     inkscape:connector-curvature="0" />
  <path
     style="opacity:0.5699999;fill:#00ccff;fill-opacity:0.70980392;fill-rule:nonzero;stroke:none;stroke-width:0.25081417;stroke-opacity:1"
     d="m 543.22481,226.27619 v -3.5114 h 5.14169 5.14169 v 3.5114 3.5114 h -5.14169 -5.14169 z"
     id="path944"
     inkscape:connector-curvature="0" />
  <path
     style="opacity:0.5699999;fill:#00ccff;fill-opacity:0.70980392;fill-rule:nonzero;stroke:none;stroke-width:0.3547048;stroke-opacity:1"
     d="m 559.83026,180.00545 v -3.54704 h 5.14322 5.14322 v 3.54704 3.54705 h -5.14322 -5.14322 z"
     id="path946"
     inkscape:connector-curvature="0" />
  <path
     style="opacity:0.5699999;fill:#00ccff;fill-opacity:0.70980392;fill-rule:nonzero;stroke:none;stroke-width:0.3547048;stroke-opacity:1"
     d="m 580.75784,180.00545 v -3.54704 h 5.14322 5.14322 v 3.54704 3.54705 h -5.14322 -5.14322 z"
     id="path948"
     inkscape:connector-curvature="0" />
  <path
     style="opacity:0.5699999;fill:#00ccff;fill-opacity:0.70980392;fill-rule:nonzero;stroke:none;stroke-width:0.3547048;stroke-opacity:1"
     d="m 563.0226,195.96717 v -3.54705 h 14.72025 14.72025 v 3.54705 3.54705 H 577.74285 563.0226 Z"
     id="path950"
     inkscape:connector-curvature="0" />
  <path
     style="opacity:0.5699999;fill:#00ccff;fill-opacity:0.70980392;fill-rule:nonzero;stroke:none;stroke-width:0.3547048;stroke-opacity:1"
     d="m 582.53137,211.39683 v -3.3697 h 4.96586 4.96587 v 3.3697 3.3697 h -4.96587 -4.96586 z"
     id="path952"
     inkscape:connector-curvature="0" />
  <path
     style="opacity:0.5699999;fill:#dbe3e2;fill-opacity:0.70980392;fill-rule:nonzero;stroke:none;stroke-width:0.50162834;stroke-opacity:1"
     d="m 448.46837,340.396 c -1.93966,-0.48483 -2.29697,-1.11923 -1.49925,-2.66186 0.80345,-1.5537 2.25201,-2.7164 7.21617,-5.79212 l 3.29385,-2.04083 1.79027,-11.36582 1.79027,-11.36582 -48.68325,-0.13733 c -44.87449,-0.12657 -48.80613,-0.20458 -50.25379,-0.99715 -2.13123,-1.16679 -4.05205,-3.54939 -4.67774,-5.80232 -0.34717,-1.25004 -0.5154,-29.91817 -0.50989,-86.89153 0.008,-81.40957 0.0474,-85.11224 0.92908,-87.05328 1.12376,-2.47397 3.47473,-4.53124 5.97007,-5.22427 2.71533,-0.75412 251.45417,-0.71908 254.17328,0.0358 2.60817,0.72409 5.53254,3.68126 6.24053,6.31053 0.40035,1.48679 0.51967,26.11271 0.42443,87.59825 l -0.13248,85.53003 -1.50489,2.13038 c -0.82768,1.1717 -2.40781,2.60194 -3.5114,3.1783 -1.9888,1.03868 -2.43045,1.04913 -50.03742,1.18315 -26.41701,0.0744 -48.02163,0.3001 -48.01028,0.50163 0.0113,0.20153 0.7528,5.19373 1.64766,11.09379 l 1.62703,10.72738 4.9761,3.31821 c 2.73685,1.82502 5.4273,3.94144 5.97878,4.70316 0.9525,1.31562 0.95903,1.42862 0.13044,2.25733 -0.81385,0.81397 -3.73455,0.87716 -43.61829,0.94377 -23.51031,0.0393 -43.19749,-0.0415 -43.74928,-0.17939 z m 46.77654,-41.99046 c 1.9003,-2.07358 2.20194,-4.93585 0.77478,-7.35183 -0.91977,-1.55705 -3.37624,-2.96987 -5.16373,-2.96987 -1.82612,0 -4.51237,1.55029 -5.28919,3.0525 -3.42256,6.6185 4.69022,12.71196 9.67814,7.2692 z m 120.76733,-98.10666 v -69.97716 l -125.28168,-0.12639 -125.28169,-0.1264 v 70.22995 70.22994 l 125.28169,-0.12639 125.28168,-0.1264 z M 492.26258,125.99656 c 0.23022,-1.98525 -2.38561,-2.53432 -3.10779,-0.65233 -0.50071,1.30481 0.25425,2.28095 1.63985,2.12027 0.99728,-0.11566 1.35228,-0.47066 1.46794,-1.46794 z"
     id="path958"
     inkscape:connector-curvature="0" />
  <path
     style="opacity:0.5699999;fill:#dbe3e2;fill-opacity:0.70980392;fill-rule:nonzero;stroke:none;stroke-width:0.50162834;stroke-opacity:1"
     d="m 523.30865,359.52066 c -6.34408,-1.14658 -15.44975,-3.64277 -18.24738,-5.00226 -2.60319,-1.26501 -5.67763,-4.19909 -5.67763,-5.41842 0,-0.78348 3.73885,-2.58376 7.52443,-3.62308 3.89001,-1.06799 13.89721,-1.46234 19.18705,-0.7561 5.47375,0.7308 14.07688,2.86973 16.50655,4.1039 2.64279,1.34242 4.01607,3.28594 3.83403,5.42603 -0.19355,2.2754 -3.2843,4.739 -6.92491,5.51977 -3.44577,0.73899 -11.41047,0.61617 -16.20214,-0.24984 z m 12.64155,-7.68707 c 1.18014,-0.74726 0.22626,-2.04315 -1.56223,-2.12238 -4.77628,-0.21159 -7.33253,0.66699 -5.60849,1.92763 1.00642,0.73591 6.0977,0.87418 7.17072,0.19475 z"
     id="path960"
     inkscape:connector-curvature="0" />
  <path
     style="opacity:0.5699999;fill:#dbe3e2;fill-opacity:0.70980392;fill-rule:nonzero;stroke:none;stroke-width:0.50162834;stroke-opacity:1"
     d="m 311.27301,359.90539 c 0,-0.50301 0.98913,-3.60684 2.19806,-6.89739 l 2.19806,-5.98283 81.05452,-0.12692 81.05451,-0.12692 1.77343,5.68094 c 0.97539,3.12452 1.77343,6.28546 1.77343,7.02431 v 1.34337 h -85.026 c -81.94304,0 -85.02601,-0.0332 -85.02601,-0.91456 z"
     id="path962"
     inkscape:connector-curvature="0" />
  <path
     style="opacity:0.5699999;fill:#006680;fill-opacity:0.70980392;fill-rule:nonzero;stroke:none;stroke-width:1.41881919;stroke-opacity:1"
     d="m 190.66035,582.24212 c -0.51356,-14.17807 -0.93757,-59.67443 -0.94225,-101.10299 -0.005,-41.42858 -0.41854,-80.59205 -0.9197,-87.02994 l -0.9112,-11.70526 h -37.50148 -37.50147 l 6.78536,-8.15821 6.78536,-8.15821 35.97758,0.91295 c 19.78766,0.50212 36.14614,1.14059 36.35216,1.41882 0.20603,0.27823 4.04237,14.88461 8.52521,32.45862 l 8.15061,31.95274 -2.39012,9.51513 c -2.85346,11.35966 -2.21448,13.83676 3.56923,13.83676 h 4.30099 l -0.001,52.14161 -0.001,52.14161 -14.36163,23.41051 c -7.8989,12.87579 -14.50135,23.5756 -14.67211,23.77736 -0.17076,0.20175 -0.73066,-11.23342 -1.24423,-25.4115 z"
     id="path964"
     inkscape:connector-curvature="0" />
  <path
     style="opacity:0.5699999;fill:#006680;fill-opacity:0.70980392;fill-rule:nonzero;stroke:none;stroke-width:1.41881919;stroke-opacity:1"
     d="m 542.86874,607.66467 c -2.02999,-3.32925 -8.89353,-14.62299 -15.25231,-25.09721 l -11.5614,-19.04403 V 472.96368 382.40393 H 382.84712 249.63921 l -0.97694,-6.51472 c -0.53732,-3.5831 -0.64064,-6.85102 -0.22961,-7.26206 0.41104,-0.41103 90.64263,-0.0267 200.51466,0.85396 109.87201,0.88072 213.654,1.59477 230.62663,1.58679 l 30.85931,-0.0145 v 5.67527 5.67528 h -80.87269 -80.8727 l -0.19445,58.5263 c -0.10698,32.18946 -0.5858,84.23508 -1.06411,115.65695 l -0.86967,57.13065 z"
     id="path966"
     inkscape:connector-curvature="0" />
  <path
     style="opacity:0.5699999;fill:#006680;fill-opacity:0.70980392;fill-rule:nonzero;stroke:none;stroke-width:1.41881919;stroke-opacity:1"
     d="m 513.9268,369.44023 c -81.93681,-0.62961 -175.41892,-1.32231 -207.73802,-1.53932 l -58.76199,-0.39458 -2.43131,-14.49382 c -1.33722,-7.97161 -2.80728,-15.47361 -3.26681,-16.67113 -0.74635,-1.94494 10.21862,-2.1773 102.74368,-2.1773 100.70999,0 103.5399,0.0734 102.16038,2.65109 -0.78035,1.45809 -1.01565,3.05427 -0.52286,3.54704 1.5998,1.59981 89.55734,1.03159 90.55645,-0.58501 0.50341,-0.81453 0.14368,-2.4107 -0.7994,-3.54704 -1.49674,-1.80347 6.06544,-2.06608 59.49366,-2.06608 h 61.20835 l 25.15864,17.18309 c 13.83726,9.4507 25.76519,17.7508 26.50652,18.44465 0.78965,0.73908 -8.31835,1.16456 -21.99169,1.02736 -12.83677,-0.12881 -90.37879,-0.74933 -172.3156,-1.37895 z m -32.35226,-12.22034 c -0.43093,-2.14596 -1.45264,-5.65754 -2.27046,-7.80351 l -1.48694,-3.90175 h -81.2842 -81.28419 l -2.46126,6.92982 c -1.35369,3.8114 -2.46125,7.32297 -2.46125,7.8035 0,0.48053 38.70716,0.87369 86.01592,0.87369 h 86.01591 z m 61.42548,2.07168 c 4.07175,-2.06007 5.271,-5.8942 2.78176,-8.89356 -6.2584,-7.5409 -46.75258,-8.79351 -46.75258,-1.4462 0,7.89004 33.32434,15.72627 43.97082,10.33976 z"
     id="path968"
     inkscape:connector-curvature="0" />
  <path
     style="opacity:0.5699999;fill:#006680;fill-opacity:0.70980392;fill-rule:nonzero;stroke:none;stroke-width:1.41881919;stroke-opacity:1"
     d="m 137.585,365.74643 c -9.41449,-0.5348 -10.4239,-1.35776 -6.27297,-5.1143 2.25012,-2.03633 6.77165,-2.34813 34.05166,-2.34813 26.20964,0 31.45701,0.33566 31.45701,2.01219 0,1.1067 0.38754,3.02211 0.86121,4.25646 0.76831,2.00219 -1.94816,2.21478 -25.18404,1.97089 -14.32489,-0.15036 -30.03568,-0.50006 -34.91287,-0.77711 z"
     id="path970"
     inkscape:connector-curvature="0" />
  <path
     style="opacity:0.5699999;fill:#006680;fill-opacity:0.70980392;fill-rule:nonzero;stroke:none;stroke-width:1.41881919;stroke-opacity:1"
     d="m 72.026848,595.50974 c -0.995739,-10.37913 -1.576707,-19.02408 -1.291041,-19.21099 0.285666,-0.18693 2.434798,-0.96557 4.77585,-1.7303 5.301752,-1.73189 6.21084,-6.24097 2.351102,-11.66148 -1.921741,-2.69884 -2.413615,-4.65932 -1.554266,-6.19488 2.220139,-3.96718 5.300976,-26.83197 8.402435,-62.35967 2.754736,-31.55593 3.733502,-37.57631 11.049447,-67.96509 6.874575,-28.55543 8.645295,-34.10244 12.333785,-38.63725 l 4.3068,-5.295 37.0922,-0.0256 c 32.1821,-0.0222 37.20373,0.26504 37.93467,2.16984 0.46335,1.20748 1.24044,49.89071 1.72686,108.18496 0.48642,58.29426 1.37768,108.35261 1.98059,111.2408 2.03728,9.75959 3.40761,9.53377 -60.49367,9.96894 l -56.804329,0.38683 z m 77.466802,-35.3987 c 3.39692,-2.14596 6.17736,-4.3806 6.17876,-4.96587 10e-4,-0.58526 -12.44761,-1.06411 -27.66444,-1.06411 -15.21684,0 -27.66698,0.31523 -27.66698,0.70051 0,0.38528 2.64967,2.61992 5.88816,4.96587 5.69526,4.12563 6.39921,4.26535 21.48822,4.26535 14.57511,0 16.00585,-0.25635 21.77628,-3.90175 z m -0.35014,-50.36808 7.19578,-4.61116 -13.73549,-0.40518 c -7.55451,-0.22284 -20.28744,-0.22284 -28.29539,0 l -14.559907,0.40518 7.035637,4.59447 c 6.72807,4.39362 7.65044,4.5952 21.09962,4.61116 13.45834,0.016 14.37384,-0.18188 21.25975,-4.59447 z m 0.0142,-50.36808 c 3.53513,-2.14597 6.4477,-4.38061 6.47237,-4.96587 0.0247,-0.58526 -12.4053,-1.06412 -27.62213,-1.06412 -15.21684,0 -27.66698,0.28426 -27.66698,0.63168 0,0.34742 2.7135,2.55359 6.02999,4.9026 5.77849,4.09281 6.66244,4.27357 21.1946,4.3342 14.09657,0.0588 15.61732,-0.21154 21.59215,-3.83849 z m 0.20945,-36.1799 7.01717,-4.61116 -13.75801,-0.40517 c -7.56691,-0.22285 -20.23536,-0.22285 -28.15212,0 l -14.39411,0.40517 6.16042,4.49599 c 5.96184,4.35106 6.64315,4.49971 21.13496,4.61117 14.59552,0.11225 15.15213,-0.002 21.99169,-4.496 z"
     id="path972"
     inkscape:connector-curvature="0" />
  <path
     style="opacity:0.5699999;fill:#006680;fill-opacity:0.70980392;fill-rule:nonzero;stroke:none;stroke-width:1.41881919;stroke-opacity:1"
     d="m 74.427278,612.75355 c -0.397732,-0.66567 -1.160157,-7.91423 -1.694276,-16.10791 -0.53412,-8.19368 -1.291863,-16.02782 -1.683874,-17.40919 -0.524959,-1.84985 0.6232,-3.06978 4.357825,-4.6302 5.703893,-2.38325 6.402701,-5.32068 2.88436,-12.1244 -1.202416,-2.32522 -1.893517,-4.70126 -1.535779,-5.28008 0.357739,-0.57884 1.033142,-3.61838 1.500896,-6.75453 0.467754,-3.13616 1.143272,-7.22255 1.50115,-9.08084 0.357878,-1.85832 1.009752,-6.62128 1.448609,-10.58435 0.438858,-3.96309 1.075077,-9.5046 1.413823,-12.31448 0.338745,-2.80988 0.953261,-8.5561 1.36559,-12.76937 4.297667,-43.91445 5.557052,-51.7326 13.673247,-84.88222 5.813961,-23.74643 7.866021,-29.29013 13.168201,-35.57441 l 2.99273,-3.54705 35.73874,0.74121 c 19.65631,0.40766 36.23591,1.23837 36.84356,1.84601 0.60765,0.60765 1.43157,31.55907 1.83095,68.78094 0.39937,37.22187 1.14426,63.84532 1.65532,59.16321 0.51105,-4.6821 0.84334,12.39706 0.73842,37.9537 -0.10492,25.55662 0.22764,46.62609 0.73901,46.82103 1.34821,0.51394 1.64795,6.93698 0.49199,10.54273 -0.54559,1.7018 -2.04638,3.5673 -3.33509,4.14557 -3.33999,1.4987 -113.223429,2.52403 -114.095402,1.06463 z m 71.508452,-50.55477 c 6.0283,-3.2599 9.73921,-5.9424 9.73921,-7.0402 0,-0.59264 -12.18411,-1.07752 -27.0758,-1.07752 -29.179068,0 -30.518035,0.42566 -21.19955,6.73939 4.16184,2.81986 6.48925,3.19234 19.94661,3.19234 9.67433,0 16.45939,-0.6621 18.58953,-1.81401 z m -2.99441,-49.44182 c 2.93196,-0.87843 7.15609,-3.09011 9.38694,-4.91484 l 4.05609,-3.31768 -27.31227,-0.051 c -30.91889,-0.0578 -33.767766,1.3092 -16.67112,7.99925 5.52282,2.16112 23.71098,2.33043 30.54036,0.2843 z m 5.06479,-52.38317 c 3.29805,-1.59655 6.3527,-3.83119 6.78811,-4.96586 0.67544,-1.76015 -3.15958,-2.06304 -26.12137,-2.06304 -16.32513,0 -26.91304,0.53806 -26.91304,1.36767 0,0.75222 2.38285,2.98686 5.29523,4.96587 4.83353,3.28447 6.58823,3.5982 20.12492,3.5982 12.04091,0 15.95736,-0.54589 20.82615,-2.90284 z m 1.36107,-37.17881 7.01717,-4.61116 -26.80727,-0.38676 c -14.744,-0.21272 -27.15613,-0.0379 -27.58252,0.38848 -1.07636,1.07637 2.49355,4.37936 7.56876,7.00286 3.01296,1.55747 8.42393,2.20282 18.52158,2.20901 13.71542,0.008 14.53552,-0.16895 21.28228,-4.60243 z"
     id="path974"
     inkscape:connector-curvature="0" />
  <path
     style="opacity:0.5699999;fill:#006680;fill-opacity:0.70980392;fill-rule:nonzero;stroke:none;stroke-width:1.41881919;stroke-opacity:1"
     d="m 548.6372,617.27362 c -1.75274,-1.749 -1.93663,-6.79557 -1.17617,-32.27814 0.49576,-16.61275 0.97461,-68.99198 1.06411,-116.39828 l 0.16273,-86.19327 h 62.66057 62.66058 l -0.94063,84.06504 c -0.51734,46.23577 -0.94121,99.54791 -0.94193,118.47141 l -10e-4,34.40636 h -60.70519 c -51.34924,0 -61.02539,-0.31951 -62.78275,-2.07312 z m 82.48402,-52.19671 6.24285,-4.61116 -13.75801,-0.40518 c -7.56691,-0.22284 -20.29061,-0.22284 -28.2749,0 l -14.51688,0.40518 6.99261,4.48774 c 6.67869,4.28628 7.66777,4.49328 22.03204,4.61116 14.82449,0.12159 15.12864,0.0575 21.28229,-4.48774 z m -0.0441,-50.36808 c 3.03434,-2.14597 5.53061,-4.38061 5.54727,-4.96587 0.0167,-0.58526 -12.41984,-1.06412 -27.63668,-1.06412 -15.21684,0 -27.66698,0.31807 -27.66698,0.70681 0,0.38874 3.03273,2.61125 6.7394,4.93891 6.39523,4.01599 7.5248,4.23348 22.1197,4.25906 14.51659,0.0254 15.69015,-0.19216 20.89729,-3.87479 z m -1.0849,-49.98213 c 3.66436,-2.32387 6.66246,-4.87774 6.66246,-5.67528 0,-1.64344 -52.79488,-2.09738 -54.42431,-0.46795 -0.54017,0.54017 2.38615,3.07963 6.50292,5.64324 7.08554,4.41232 8.20856,4.66282 21.04076,4.69315 12.62971,0.0298 14.01082,-0.25658 20.21817,-4.19316 z m 1.01761,-36.39968 c 3.10467,-2.05458 5.64485,-4.28922 5.64485,-4.96587 0,-0.67665 -12.45013,-1.23028 -27.66697,-1.23028 -15.21684,0 -27.66698,0.28425 -27.66698,0.63167 0,0.34742 2.7135,2.5536 6.02999,4.90261 5.82667,4.12694 6.56916,4.27307 22.02211,4.33419 14.95242,0.0591 16.35914,-0.1796 21.637,-3.67232 z"
     id="path976"
     inkscape:connector-curvature="0" />
  <path
     style="opacity:0.5699999;fill:#006680;fill-opacity:0.70980392;fill-rule:nonzero;stroke:none;stroke-width:1.41881919;stroke-opacity:1"
     d="m 561.10817,618.29222 c -10.49394,-0.46163 -11.08659,-0.6698 -13.12408,-4.60987 -1.5917,-3.07802 -2.10852,-8.74049 -2.03413,-22.28683 0.0652,-11.87178 0.53713,-17.17778 1.3629,-15.32276 0.75184,1.68893 1.08524,-26.74141 0.8236,-70.23155 -0.24177,-40.18806 -0.18814,-84.40201 0.11918,-98.25324 l 0.55876,-25.18404 h 62.59425 62.59426 l -0.93888,47.05265 c -0.51639,25.87895 -0.93889,79.19109 -0.93889,118.4714 v 71.41876 l -50.01337,-0.28552 c -27.50736,-0.15705 -54.95898,-0.5031 -61.0036,-0.769 z M 630.69538,565.824 c 3.27761,-2.12523 5.95928,-4.35987 5.95928,-4.96587 0,-0.60599 -12.18411,-1.10179 -27.0758,-1.10179 -29.41381,0 -31.2395,0.61625 -19.77953,6.67642 5.24939,2.77593 8.27499,3.25531 20.54633,3.25531 13.26,0 14.85858,-0.30354 20.34972,-3.86407 z m -1.65488,-49.52659 c 2.68105,-1.27225 5.5135,-3.50689 6.29432,-4.96587 1.36368,-2.54805 0.34963,-2.6527 -25.70604,-2.6527 -29.17149,0 -30.70242,0.48381 -20.44622,6.46138 4.84237,2.82226 7.64172,3.28726 20.30011,3.37203 10.7984,0.0723 15.97288,-0.51368 19.55783,-2.21484 z m -1.89241,-49.64483 c 5.99801,-3.03727 9.61991,-6.30118 8.67997,-7.82203 -0.98088,-1.5871 -53.08853,-1.61682 -53.08853,-0.0303 0,1.65228 4.12812,5.09203 9.22233,7.68449 6.13593,3.12261 29.13451,3.2323 35.18623,0.16782 z m 4.21135,-38.18817 c 2.91237,-1.97901 5.29522,-4.21365 5.29522,-4.96587 0,-0.83129 -10.9368,-1.36767 -27.88687,-1.36767 -27.36545,0 -27.84099,0.0507 -25.43278,2.71175 5.11493,5.65193 10.7774,7.15395 27.09685,7.18768 14.42392,0.0298 16.04169,-0.24585 20.92758,-3.56589 z"
     id="path978"
     inkscape:connector-curvature="0" />
  <path
     style="opacity:0.5699999;fill:#006680;fill-opacity:0.70980392;fill-rule:nonzero;stroke:none;stroke-width:1.41881919;stroke-opacity:1"
     d="m 96.146035,312.33414 c -2.662906,-7.00397 -5.646472,-18.75272 -7.96781,-31.37578 -2.924724,-15.90419 -2.364963,-28.26162 3.594062,-79.34338 3.42821,-29.38721 4.357611,-42.72341 4.029421,-57.81918 l -0.426582,-19.62156 7.803504,-0.0315 c 4.29193,-0.0174 10.12051,-0.57013 12.95241,-1.22839 l 5.14889,-1.19684 0.91848,17.90181 c 0.50516,9.846 0.98738,35.77894 1.07161,57.62875 0.0842,21.84982 0.71076,42.87257 1.39229,46.71723 1.62072,9.14286 7.18438,21.13713 13.22302,28.5065 l 4.83447,5.89983 -3.11823,5.16669 c -2.86439,4.7461 -23.53651,21.15094 -36.77045,29.18004 l -5.313385,3.22367 z"
     id="path980"
     inkscape:connector-curvature="0" />
  <path
     style="opacity:0.5699999;fill:#006680;fill-opacity:0.70980392;fill-rule:nonzero;stroke:none;stroke-width:1.41881919;stroke-opacity:1"
     d="m 94.917534,306.86174 c -9.497128,-29.85755 -9.979069,-47.01963 -2.958612,-105.35726 1.596449,-13.26596 3.265095,-36.00666 3.708101,-50.5349 l 0.805466,-26.41497 12.220691,-0.76798 c 6.72138,-0.42239 12.36141,-0.63225 12.5334,-0.46636 0.172,0.1659 0.93208,27.46968 1.68907,60.67506 1.54894,67.94407 1.75792,69.32485 12.8932,85.18844 3.12284,4.4489 5.6779,9.03354 5.6779,10.18811 0,3.87366 -25.10431,25.39765 -39.50926,33.87455 l -4.236172,2.49286 z"
     id="path982"
     inkscape:connector-curvature="0" />
  <path
     style="opacity:0.5699999;fill:#006680;fill-opacity:0.70980392;fill-rule:nonzero;stroke:none;stroke-width:1.41881919;stroke-opacity:1"
     d="m 94.637672,305.69353 c -8.190333,-27.50162 -8.7966,-44.0945 -3.446445,-94.32555 1.990784,-18.69088 4.001902,-45.89146 4.469151,-60.44572 l 0.849545,-26.46228 11.492567,-0.60774 c 6.32091,-0.33425 11.90376,-0.23789 12.40633,0.21413 0.50257,0.45203 1.58783,27.63755 2.41169,60.41228 1.6854,67.04823 1.82931,67.99759 12.87839,84.95637 4.92406,7.55774 5.72643,9.69642 4.49855,11.99074 -2.49477,4.66151 -22.98702,21.69485 -36.60892,30.42966 l -5.974781,3.83122 z"
     id="path984"
     inkscape:connector-curvature="0" />
</svg>
