<?xml version="1.0" encoding="UTF-8" standalone="no"?>
<!-- Created with Inkscape (http://www.inkscape.org/) -->

<svg
   xmlns:dc="http://purl.org/dc/elements/1.1/"
   xmlns:cc="http://creativecommons.org/ns#"
   xmlns:rdf="http://www.w3.org/1999/02/22-rdf-syntax-ns#"
   xmlns:svg="http://www.w3.org/2000/svg"
   xmlns="http://www.w3.org/2000/svg"
   xmlns:xlink="http://www.w3.org/1999/xlink"
   xmlns:sodipodi="http://sodipodi.sourceforge.net/DTD/sodipodi-0.dtd"
   xmlns:inkscape="http://www.inkscape.org/namespaces/inkscape"
   width="275.80869"
   height="273.77289"
   viewBox="0 0 72.974381 72.435743"
   version="1.1"
   id="svg8"
   inkscape:version="0.92.3 (2405546, 2018-03-11)"
   sodipodi:docname="drawing.svg">
  <defs
     id="defs2">
    <linearGradient
       inkscape:collect="always"
       id="linearGradient837">
      <stop
         style="stop-color:#000000;stop-opacity:1;"
         offset="0"
         id="stop833" />
      <stop
         style="stop-color:#000000;stop-opacity:0;"
         offset="1"
         id="stop835" />
    </linearGradient>
    <linearGradient
       inkscape:collect="always"
       xlink:href="#linearGradient837"
       id="linearGradient839"
       x1="28.572266"
       y1="97.35804"
       x2="105.81789"
       y2="97.35804"
       gradientUnits="userSpaceOnUse" />
  </defs>
  <sodipodi:namedview
     id="base"
     pagecolor="#ffffff"
     bordercolor="#666666"
     borderopacity="1.0"
     inkscape:pageopacity="0.0"
     inkscape:pageshadow="2"
     inkscape:zoom="0.98994949"
     inkscape:cx="83.386426"
     inkscape:cy="124.50769"
     inkscape:document-units="mm"
     inkscape:current-layer="flowRoot823"
     showgrid="false"
     units="px"
     inkscape:window-width="1366"
     inkscape:window-height="689"
     inkscape:window-x="0"
     inkscape:window-y="0"
     inkscape:window-maximized="1" />
  <metadata
     id="metadata5">
    <rdf:RDF>
      <cc:Work
         rdf:about="">
        <dc:format>image/svg+xml</dc:format>
        <dc:type
           rdf:resource="http://purl.org/dc/dcmitype/StillImage" />
        <dc:title />
      </cc:Work>
    </rdf:RDF>
  </metadata>
  <g
     inkscape:label="Layer 1"
     inkscape:groupmode="layer"
     id="layer1"
     transform="translate(5.7422435e-7,-224.56425)">
    <g
       aria-label="&lt;L
  N/&gt;"
       transform="matrix(0.58263956,0,0,0.63989905,6.0314605,189.58947)"
       style="font-style:italic;font-variant:normal;font-weight:normal;font-stretch:normal;font-size:40px;line-height:1.25;font-family:'Century Schoolbook L';-inkscape-font-specification:'Century Schoolbook L, Italic';font-variant-ligatures:normal;font-variant-caps:normal;font-variant-numeric:normal;font-feature-settings:normal;text-align:start;letter-spacing:0px;word-spacing:0px;writing-mode:lr-tb;text-anchor:start;fill:#000000;fill-opacity:1;fill-rule:nonzero;stroke:#00465f;stroke-width:1.49197888;stroke-miterlimit:3.20000005;stroke-dasharray:none;stroke-opacity:1"
       id="flowRoot823">
      <rect
         ry="10.939225"
         rx="12.014289"
         y="58.463165"
         x="-5.2469544"
         height="109.39226"
         width="120.14289"
         id="rect866"
         style="opacity:1;fill:#103845;fill-opacity:1;fill-rule:nonzero;stroke:none;stroke-width:1.49197876;stroke-miterlimit:3.20000005;stroke-dasharray:none;stroke-opacity:0.9372549" />
      <rect
         style="opacity:1;fill:#ffffff;fill-opacity:1;fill-rule:nonzero;stroke:#336b7f;stroke-width:1.47279012;stroke-miterlimit:3.20000005;stroke-dasharray:none;stroke-opacity:0.9372549"
         id="rect864"
         width="118.6701"
         height="107.91946"
         x="-9.6155643"
         y="55.393108"
         rx="11.867009"
         ry="10.791946" />
      <path
         d="M 31.189989,74.420806 32.443733,71.218175 9.8436386,73.735256 8.7226436,76.598785 24.47877,91.564304 25.732514,88.361673 13.465401,76.524365 Z"
         style="fill:#000000;fill-opacity:1;fill-rule:nonzero;stroke:#00465f;stroke-width:1.49197888;stroke-miterlimit:3.20000005;stroke-dasharray:none;stroke-opacity:1"
         id="path849"
         inkscape:connector-curvature="0" />
      <path
         d="m 53.243465,83.936621 c -3.52,6.44 -6.08,8.24 -11.76,8.24 h -1.68 c -2.08,0 -2.8,-0.32 -2.8,-1.28 0,-0.52 0.04,-0.72 0.44,-2.2 l 5,-18.6 c 0.56,-2.16 0.56,-2.16 0.92,-2.48 0.4,-0.4 1.36,-0.56 3.32,-0.56 h 0.88 l 0.24,-1.88 h -13.44 l -0.24,1.88 h 1.04 c 2.6,0 3.16,0.2 3.16,1.08 0,0.32 -0.16,1.16 -0.36,1.96 l -5.12,19.04 c -0.56,2.12 -0.6,2.16 -0.92,2.48 -0.44,0.4 -1.36,0.56 -3.32,0.56 h -0.2 l -0.2,1.88 h 23.56 l 3.12,-9.8 z"
         style="fill:#000000;fill-opacity:1;fill-rule:nonzero;stroke:#00465f;stroke-width:1.49197888;stroke-miterlimit:3.20000005;stroke-dasharray:none;stroke-opacity:1"
         id="path851"
         inkscape:connector-curvature="0" />
      <path
         d="m 40.252215,115.17663 h -8.44 l -0.2,1.88 h 2.08 c 1.92,0 2.28,0.2 2.6,1.28 l -4.56,17.04 c -1.56,5.84 -2.32,6.72 -5.8,6.8 l -0.2,1.88 h 11.04 l 0.24,-1.88 h -0.44 c -2.44,0 -3.6,-0.72 -3.6,-2.2 0,-0.88 0.04,-1.04 0.96,-4.6 l 3.96,-14.8 11.12,24.04 h 1.56 l 5.56,-20.76 c 1.52,-5.76 2.32,-6.68 5.68,-6.8 l 0.2,-1.88 h -10.48 l -0.24,1.88 c 2.44,0 3.6,0.72 3.6,2.2 0,0.88 -0.04,1.04 -0.92,4.6 l -3.6,13.4 z"
         style="fill:#000000;fill-opacity:1;fill-rule:nonzero;stroke:#00465f;stroke-width:1.49197888;stroke-miterlimit:3.20000005;stroke-dasharray:none;stroke-opacity:1"
         id="path853"
         inkscape:connector-curvature="0" />
      <path
         d="m 67.143745,116.35799 -10.72,33.2 h 2.32 l 10.72,-33.2 z"
         style="fill:#000000;fill-opacity:1;fill-rule:nonzero;stroke:#00465f;stroke-width:1.49197888;stroke-miterlimit:3.20000005;stroke-dasharray:none;stroke-opacity:1"
         id="path855"
         inkscape:connector-curvature="0" />
      <path
         d="m 71.14419,129.52941 13.727349,10.42368 -17.323589,4.00955 -0.82617,3.31574 22.110379,-4.94853 0.73869,-2.96466 -17.600499,-13.15152 z"
         style="fill:#000000;fill-opacity:1;fill-rule:nonzero;stroke:#00465f;stroke-width:1.49197888;stroke-miterlimit:3.20000005;stroke-dasharray:none;stroke-opacity:1"
         id="path857"
         inkscape:connector-curvature="0" />
    </g>
    <g
       id="g847"
       transform="translate(-15.825724,5.0513148)">
      <circle
         r="1.8"
         cy="251.76463"
         cx="46.271038"
         id="path829"
         style="opacity:0.75;fill:#00465f;fill-opacity:1;fill-rule:nonzero;stroke:#000000;stroke-width:0.91100001;stroke-miterlimit:3.20000005;stroke-dasharray:none;stroke-opacity:1" />
      <circle
         style="opacity:0.75;fill:#00465f;fill-opacity:1;fill-rule:nonzero;stroke:#000000;stroke-width:0.91100001;stroke-miterlimit:3.20000005;stroke-dasharray:none;stroke-opacity:1"
         id="circle831"
         cx="51.349159"
         cy="251.76463"
         r="1.8" />
      <circle
         r="1.8"
         cy="251.76463"
         cx="56.360462"
         id="circle833"
         style="opacity:0.75;fill:#00465f;fill-opacity:1;fill-rule:nonzero;stroke:#000000;stroke-width:0.91100001;stroke-miterlimit:3.20000005;stroke-dasharray:none;stroke-opacity:1" />
    </g>
  </g>
</svg>
